<?xml version="1.0" encoding="UTF-8"?>
<!DOCTYPE svg PUBLIC "-//W3C//DTD SVG 1.1//EN" "http://www.w3.org/Graphics/SVG/1.1/DTD/svg11.dtd">
<!-- Creator: CorelDRAW X8 -->
<svg xmlns="http://www.w3.org/2000/svg" xml:space="preserve" width="128px" height="128px" version="1.1" shape-rendering="geometricPrecision" text-rendering="geometricPrecision" image-rendering="optimizeQuality" fill-rule="evenodd" clip-rule="evenodd"
viewBox="0 0 517 517"
 xmlns:xlink="http://www.w3.org/1999/xlink"
 enable-background="new 6.12 156.28 599.698 479.44">
 <g id="Vrstva_x0020_1">
  <metadata id="CorelCorpID_0Corel-Layer"/>
  <rect fill="none" width="517" height="517"/>
  <g id="_1979411965168">
   <g>
    <path fill="#FEFEFE" d="M440 103c21,0 39,8 55,23 15,15 22,33 22,55l0 207c0,21 -7,40 -22,55 -16,15 -34,22 -55,22l-362 0c-22,0 -40,-7 -55,-22 -15,-15 -23,-34 -23,-55l0 -207c0,-22 8,-40 23,-55 15,-15 33,-23 55,-23l41 0 26 -26c7,-7 17,-13 28,-18 12,-5 23,-7 34,-7l103 0c11,0 22,2 34,7 12,5 22,11 29,18l26 26 41 0zm-181 259c25,0 46,-9 64,-26 17,-18 26,-39 26,-64 0,-26 -9,-47 -26,-65 -17,-17 -39,-26 -64,-26 -25,0 -47,9 -64,26 -18,18 -27,39 -27,65 0,25 9,46 27,64 17,17 39,26 64,26l0 0zm155 -121c10,0 18,-4 24,-10 7,-6 10,-14 10,-24 0,-9 -4,-17 -10,-24 -7,-7 -15,-10 -24,-10 -9,0 -17,3 -24,10 -7,6 -10,15 -10,24 0,9 3,17 10,24 7,6 15,10 24,10l0 0z"/>
   </g>
  </g>
 </g>
</svg>
