<?xml version="1.0" encoding="UTF-8"?>
<!DOCTYPE svg PUBLIC "-//W3C//DTD SVG 1.1//EN" "http://www.w3.org/Graphics/SVG/1.1/DTD/svg11.dtd">
<!-- Creator: CorelDRAW 2017 -->
<svg xmlns="http://www.w3.org/2000/svg" xml:space="preserve" width="24px" height="24px" version="1.1" shape-rendering="geometricPrecision" text-rendering="geometricPrecision" image-rendering="optimizeQuality" fill-rule="evenodd" clip-rule="evenodd"
viewBox="0 0 3.66 3.66"
 xmlns:xlink="http://www.w3.org/1999/xlink">
 <g id="Vrstva_x0020_1">
  <metadata id="CorelCorpID_0Corel-Layer"/>
  <rect fill="none" width="3.66" height="3.66"/>
  <path id="XMLID_276_" fill="#BABABA" d="M3.63 0.41c-0.04,-0.09 -0.13,-0.15 -0.24,-0.15l-3.13 0c-0.1,0 -0.19,0.06 -0.24,0.15 -0.04,0.1 -0.02,0.2 0.04,0.28l0 0 1.25 1.45 0 1.13c0,0.04 0.02,0.09 0.07,0.11 0.01,0.01 0.04,0.02 0.06,0.02 0.02,0 0.05,-0.01 0.07,-0.03l0.78 -0.52c0.04,-0.02 0.06,-0.06 0.06,-0.11l0 -0.6 1.24 -1.45c0.07,-0.08 0.09,-0.18 0.04,-0.28z"/>
 </g>
</svg>
