<?xml version="1.0" encoding="UTF-8"?>
<!DOCTYPE svg PUBLIC "-//W3C//DTD SVG 1.1//EN" "http://www.w3.org/Graphics/SVG/1.1/DTD/svg11.dtd">
<!-- Creator: CorelDRAW 2017 -->
<svg xmlns="http://www.w3.org/2000/svg" xml:space="preserve" width="24px" height="24px" version="1.1" shape-rendering="geometricPrecision" text-rendering="geometricPrecision" image-rendering="optimizeQuality" fill-rule="evenodd" clip-rule="evenodd"
viewBox="0 0 14.57 14.57"
 xmlns:xlink="http://www.w3.org/1999/xlink">
 <g id="Vrstva_x0020_1">
  <metadata id="CorelCorpID_0Corel-Layer"/>
  <path fill="#4B6A77" d="M7.28 0c-4.02,0 -7.28,3.26 -7.28,7.28 0,4.02 3.26,7.29 7.28,7.29 4.02,0 7.29,-3.27 7.29,-7.29 0,-4.02 -3.27,-7.28 -7.29,-7.28zm2 5.03c0.43,0 0.78,0.39 0.78,0.87 0,0.47 -0.35,0.86 -0.78,0.86 -0.43,0 -0.78,-0.39 -0.78,-0.86 0,-0.48 0.35,-0.87 0.78,-0.87zm-3.99 0c0.43,0 0.78,0.39 0.78,0.87 0,0.47 -0.35,0.86 -0.78,0.86 -0.43,0 -0.78,-0.39 -0.78,-0.86 0,-0.48 0.35,-0.87 0.78,-0.87zm1.99 7.63c-2.68,0 -4.68,-1.89 -4.68,-4.34 0,-0.26 2,0.6 4.68,0.6 2.68,0 4.68,-0.86 4.68,-0.6 0,2.45 -2,4.34 -4.68,4.34z"/>
  <rect fill="none" width="14.57" height="14.57"/>
 </g>
</svg>
