<?xml version="1.0" encoding="UTF-8"?>
<!DOCTYPE svg PUBLIC "-//W3C//DTD SVG 1.1//EN" "http://www.w3.org/Graphics/SVG/1.1/DTD/svg11.dtd">
<!-- Creator: CorelDRAW 2017 -->
<svg xmlns="http://www.w3.org/2000/svg" xml:space="preserve" width="24px" height="24px" version="1.1" shape-rendering="geometricPrecision" text-rendering="geometricPrecision" image-rendering="optimizeQuality" fill-rule="evenodd" clip-rule="evenodd"
viewBox="0 0 3.66 3.66"
 xmlns:xlink="http://www.w3.org/1999/xlink">
 <g id="Vrstva_x0020_1">
  <metadata id="CorelCorpID_0Corel-Layer"/>
  <rect fill="none" width="3.66" height="3.66"/>
  <g id="_1605684530224">
   <path fill="#BABABA" d="M2.15 3.16l-0.58 0c-0.12,0 -0.22,0.13 -0.15,0.25 0.1,0.15 0.27,0.25 0.45,0.25 0.18,0 0.35,-0.1 0.43,-0.25 0.07,-0.12 -0.01,-0.25 -0.15,-0.25z"/>
   <path fill="#BABABA" d="M3.5 2.61l-0.06 -0.09c-0.27,-0.35 -0.4,-0.76 -0.4,-1.2l0 -0.11c0,-0.6 -0.44,-1.13 -1.04,-1.2 -0.7,-0.08 -1.3,0.46 -1.3,1.15l0 0.16c0,0.44 -0.13,0.85 -0.4,1.2l-0.06 0.09c-0.04,0.03 -0.05,0.1 -0.04,0.13 0.05,0.15 0.19,0.25 0.34,0.25l2.66 0c0.15,0 0.29,-0.1 0.32,-0.25 0.02,-0.05 0,-0.1 -0.02,-0.13z"/>
  </g>
 </g>
</svg>
