<?xml version="1.0" encoding="UTF-8"?>
<!DOCTYPE svg PUBLIC "-//W3C//DTD SVG 1.1//EN" "http://www.w3.org/Graphics/SVG/1.1/DTD/svg11.dtd">
<!-- Creator: CorelDRAW X8 -->
<svg xmlns="http://www.w3.org/2000/svg" xml:space="preserve" width="50px" height="37px" version="1.1" shape-rendering="geometricPrecision" text-rendering="geometricPrecision" image-rendering="optimizeQuality" fill-rule="evenodd" clip-rule="evenodd"
viewBox="0 0 51 38"
 xmlns:xlink="http://www.w3.org/1999/xlink">
 <g id="Vrstva_x0020_1">
  <metadata id="CorelCorpID_0Corel-Layer"/>
  <path fill="#FEFEFE" d="M3 7l45 0c2,0 3,-2 3,-4 0,-1 -1,-3 -3,-3l-45 0c-1,0 -3,2 -3,3 0,2 2,4 3,4z"/>
  <path fill="#FEFEFE" d="M48 15l-45 0c-1,0 -3,2 -3,4 0,2 2,3 3,3l45 0c2,0 3,-1 3,-3 0,-2 -1,-4 -3,-4z"/>
  <path fill="#FEFEFE" d="M48 31l-45 0c-1,0 -3,1 -3,3 0,2 2,4 3,4l45 0c2,0 3,-2 3,-4 0,-2 -1,-3 -3,-3z"/>
 </g>
</svg>
