<?xml version="1.0" encoding="UTF-8"?>
<!DOCTYPE svg PUBLIC "-//W3C//DTD SVG 1.1//EN" "http://www.w3.org/Graphics/SVG/1.1/DTD/svg11.dtd">
<!-- Creator: CorelDRAW 2017 -->
<svg xmlns="http://www.w3.org/2000/svg" xml:space="preserve" width="24px" height="24px" version="1.1" shape-rendering="geometricPrecision" text-rendering="geometricPrecision" image-rendering="optimizeQuality" fill-rule="evenodd" clip-rule="evenodd"
viewBox="0 0 3.55 3.55"
 xmlns:xlink="http://www.w3.org/1999/xlink">
 <g id="Vrstva_x0020_1">
  <metadata id="CorelCorpID_0Corel-Layer"/>
  <rect fill="none" width="3.55" height="3.55"/>
  <g id="_1605596364816">
   <path fill="#4B6A77" d="M0.65 1.61l2.26 0c0.35,0 0.64,-0.29 0.64,-0.64 0,-0.36 -0.29,-0.65 -0.64,-0.65l-2.26 0c-0.36,0 -0.65,0.29 -0.65,0.65 0,0.35 0.29,0.64 0.65,0.64zm0 -0.96c0.17,0 0.32,0.14 0.32,0.32 0,0.18 -0.15,0.32 -0.32,0.32 -0.18,0 -0.33,-0.14 -0.33,-0.32 0,-0.18 0.15,-0.32 0.33,-0.32z"/>
   <path fill="#4B6A77" d="M2.91 1.94l-2.26 0c-0.36,0 -0.65,0.29 -0.65,0.64 0,0.36 0.29,0.65 0.65,0.65l2.26 0c0.35,0 0.64,-0.29 0.64,-0.65 0,-0.35 -0.29,-0.64 -0.64,-0.64zm0 0.96c-0.18,0 -0.33,-0.14 -0.33,-0.32 0,-0.18 0.15,-0.32 0.33,-0.32 0.17,0 0.32,0.14 0.32,0.32 0,0.18 -0.15,0.32 -0.32,0.32z"/>
  </g>
 </g>
</svg>
