<?xml version="1.0" encoding="UTF-8"?>
<!DOCTYPE svg PUBLIC "-//W3C//DTD SVG 1.1//EN" "http://www.w3.org/Graphics/SVG/1.1/DTD/svg11.dtd">
<!-- Creator: CorelDRAW 2017 -->
<svg xmlns="http://www.w3.org/2000/svg" xml:space="preserve" width="24px" height="24px" version="1.1" shape-rendering="geometricPrecision" text-rendering="geometricPrecision" image-rendering="optimizeQuality" fill-rule="evenodd" clip-rule="evenodd"
viewBox="0 0 20.86 20.86"
 xmlns:xlink="http://www.w3.org/1999/xlink">
 <g id="Vrstva_x0020_1">
  <metadata id="CorelCorpID_0Corel-Layer"/>
  <path fill="#4B6A77" d="M4.78 5.65l0 3.04 -1.3 0c-0.96,0 -1.74,0.78 -1.74,1.74l0 8.69c0,0.96 0.78,1.74 1.74,1.74l13.91 0c0.96,0 1.73,-0.78 1.73,-1.74l0 -8.69c0,-0.96 -0.77,-1.74 -1.73,-1.74l-1.31 0 0 -3.04c0,-3.12 -2.53,-5.65 -5.65,-5.65 -3.12,0 -5.65,2.53 -5.65,5.65zm2.17 3.04l0 -3.04c0,-1.92 1.56,-3.48 3.48,-3.48 1.92,0 3.48,1.56 3.48,3.48l0 3.04 -6.96 0zm1.74 4.78c0,-0.96 0.78,-1.73 1.74,-1.73 0.96,0 1.74,0.77 1.74,1.73 0,0.62 -0.32,1.16 -0.8,1.46 0,0 0.17,1.03 0.37,2.24 0,0.36 -0.3,0.65 -0.66,0.65l-1.3 0c-0.36,0 -0.65,-0.29 -0.65,-0.65l0.36 -2.24c-0.48,-0.3 -0.8,-0.84 -0.8,-1.46z"/>
  <rect fill="none" width="20.86" height="20.86"/>
 </g>
</svg>
