<?xml version="1.0" encoding="UTF-8"?>
<!DOCTYPE svg PUBLIC "-//W3C//DTD SVG 1.1//EN" "http://www.w3.org/Graphics/SVG/1.1/DTD/svg11.dtd">
<!-- Creator: CorelDRAW 2017 -->
<svg xmlns="http://www.w3.org/2000/svg" xml:space="preserve" width="24px" height="24px" version="1.1" shape-rendering="geometricPrecision" text-rendering="geometricPrecision" image-rendering="optimizeQuality" fill-rule="evenodd" clip-rule="evenodd"
viewBox="0 0 5.62 5.62"
 xmlns:xlink="http://www.w3.org/1999/xlink">
 <g id="Vrstva_x0020_1">
  <metadata id="CorelCorpID_0Corel-Layer"/>
  <rect fill="none" width="5.62" height="5.62"/>
  <path id="XMLID_276_" fill="#4B6A77" d="M5.58 0.64c-0.07,-0.15 -0.21,-0.24 -0.37,-0.24l-4.81 0c-0.16,0 -0.3,0.09 -0.36,0.24 -0.07,0.14 -0.05,0.3 0.06,0.42l0 0 1.91 2.22 0 1.74c0,0.07 0.04,0.14 0.1,0.17 0.03,0.02 0.06,0.03 0.1,0.03 0.04,0 0.07,-0.02 0.11,-0.04l1.2 -0.8c0.06,-0.04 0.09,-0.1 0.09,-0.17l0 -0.93 1.91 -2.22c0.1,-0.12 0.13,-0.28 0.06,-0.42z"/>
 </g>
</svg>
