<?xml version="1.0" encoding="UTF-8"?>
<!DOCTYPE svg PUBLIC "-//W3C//DTD SVG 1.1//EN" "http://www.w3.org/Graphics/SVG/1.1/DTD/svg11.dtd">
<!-- Creator: CorelDRAW 2017 -->
<svg xmlns="http://www.w3.org/2000/svg" xml:space="preserve" width="24px" height="24px" version="1.1" shape-rendering="geometricPrecision" text-rendering="geometricPrecision" image-rendering="optimizeQuality" fill-rule="evenodd" clip-rule="evenodd"
viewBox="0 0 22.32 22.32"
 xmlns:xlink="http://www.w3.org/1999/xlink">
 <g id="Vrstva_x0020_1">
  <metadata id="CorelCorpID_0Corel-Layer"/>
  <rect fill="none" width="22.32" height="22.32"/>
  <path fill="#BABABA" d="M5.11 6.04l0 3.26 -1.39 0c-1.03,0 -1.86,0.83 -1.86,1.86l0 9.3c0,1.02 0.83,1.86 1.86,1.86l14.88 0c1.02,0 1.86,-0.84 1.86,-1.86l0 -9.3c0,-1.03 -0.84,-1.86 -1.86,-1.86l-1.4 0 0 -3.26c0,-3.33 -2.7,-6.04 -6.04,-6.04 -3.34,0 -6.05,2.71 -6.05,6.04zm2.33 3.26l0 -3.26c0,-2.05 1.66,-3.72 3.72,-3.72 2.05,0 3.72,1.67 3.72,3.72l0 3.26 -7.44 0zm1.86 5.11c0,-1.03 0.83,-1.86 1.86,-1.86 1.03,0 1.86,0.83 1.86,1.86 0,0.66 -0.34,1.23 -0.85,1.56 0,0 0.18,1.1 0.38,2.39 0,0.39 -0.31,0.7 -0.69,0.7l-1.4 0c-0.39,0 -0.7,-0.31 -0.7,-0.7l0.39 -2.39c-0.51,-0.33 -0.85,-0.9 -0.85,-1.56z"/>
 </g>
</svg>
