<?xml version="1.0" encoding="UTF-8"?>
<!DOCTYPE svg PUBLIC "-//W3C//DTD SVG 1.1//EN" "http://www.w3.org/Graphics/SVG/1.1/DTD/svg11.dtd">
<!-- Creator: CorelDRAW 2017 -->
<svg xmlns="http://www.w3.org/2000/svg" xml:space="preserve" width="24px" height="24px" version="1.1" shape-rendering="geometricPrecision" text-rendering="geometricPrecision" image-rendering="optimizeQuality" fill-rule="evenodd" clip-rule="evenodd"
viewBox="0 0 5.37 5.36"
 xmlns:xlink="http://www.w3.org/1999/xlink">
 <g id="Vrstva_x0020_1">
  <metadata id="CorelCorpID_0Corel-Layer"/>
  <rect fill="none" width="5.36" height="5.36"/>
  <g id="_1605682711680">
   <path fill="#BABABA" d="M0.98 2.44l3.41 0c0.54,0 0.98,-0.44 0.98,-0.98 0,-0.53 -0.44,-0.97 -0.98,-0.97l-3.41 0c-0.54,0 -0.98,0.44 -0.98,0.97 0,0.54 0.44,0.98 0.98,0.98zm0 -1.46c0.27,0 0.49,0.21 0.49,0.48 0,0.27 -0.22,0.49 -0.49,0.49 -0.27,0 -0.49,-0.22 -0.49,-0.49 0,-0.27 0.22,-0.48 0.49,-0.48z"/>
   <path fill="#BABABA" d="M4.39 2.93l-3.41 0c-0.54,0 -0.98,0.43 -0.98,0.97 0,0.54 0.44,0.98 0.98,0.98l3.41 0c0.54,0 0.98,-0.44 0.98,-0.98 0,-0.54 -0.44,-0.97 -0.98,-0.97zm0 1.46c-0.27,0 -0.49,-0.22 -0.49,-0.49 0,-0.27 0.22,-0.49 0.49,-0.49 0.27,0 0.49,0.22 0.49,0.49 0,0.27 -0.22,0.49 -0.49,0.49z"/>
  </g>
 </g>
</svg>
