<?xml version="1.0" encoding="UTF-8"?>
<!DOCTYPE svg PUBLIC "-//W3C//DTD SVG 1.1//EN" "http://www.w3.org/Graphics/SVG/1.1/DTD/svg11.dtd">
<!-- Creator: CorelDRAW 2017 -->
<svg xmlns="http://www.w3.org/2000/svg" xml:space="preserve" width="24px" height="24px" version="1.1" shape-rendering="geometricPrecision" text-rendering="geometricPrecision" image-rendering="optimizeQuality" fill-rule="evenodd" clip-rule="evenodd"
viewBox="0 0 42.15 42.15"
 xmlns:xlink="http://www.w3.org/1999/xlink">
 <g id="Vrstva_x0020_1">
  <metadata id="CorelCorpID_0Corel-Layer"/>
  <rect fill="none" width="42.15" height="42.15"/>
  <path fill="#BABABA" d="M21.08 0c-11.64,0 -21.08,9.44 -21.08,21.08 0,11.63 9.44,21.07 21.08,21.07 11.63,0 21.07,-9.44 21.07,-21.07 0,-11.64 -9.44,-21.08 -21.07,-21.08zm5.77 14.55c1.24,0 2.25,1.13 2.25,2.51 0,1.39 -1.01,2.51 -2.25,2.51 -1.25,0 -2.26,-1.12 -2.26,-2.51 0,-1.38 1.01,-2.51 2.26,-2.51zm-11.55 0c1.25,0 2.26,1.13 2.26,2.51 0,1.39 -1.01,2.51 -2.26,2.51 -1.24,0 -2.25,-1.12 -2.25,-2.51 0,-1.38 1.01,-2.51 2.25,-2.51zm5.78 22.08c-7.76,0 -13.55,-5.48 -13.55,-12.54 0,-0.76 5.79,1.71 13.54,1.71 7.76,0 13.55,-2.47 13.55,-1.71 0,7.06 -5.79,12.54 -13.54,12.54z"/>
 </g>
</svg>
