<?xml version="1.0" encoding="UTF-8"?>
<!DOCTYPE svg PUBLIC "-//W3C//DTD SVG 1.1//EN" "http://www.w3.org/Graphics/SVG/1.1/DTD/svg11.dtd">
<!-- Creator: CorelDRAW 2017 -->
<svg xmlns="http://www.w3.org/2000/svg" xml:space="preserve" width="24px" height="24px" version="1.1" shape-rendering="geometricPrecision" text-rendering="geometricPrecision" image-rendering="optimizeQuality" fill-rule="evenodd" clip-rule="evenodd"
viewBox="0 0 5.62 5.62"
 xmlns:xlink="http://www.w3.org/1999/xlink">
 <g id="Vrstva_x0020_1">
  <metadata id="CorelCorpID_0Corel-Layer"/>
  <rect fill="none" width="5.62" height="5.62"/>
  <g id="_1571082071232">
   <path fill="#4B6A77" d="M3.34 4.85l-0.9 0c-0.18,0 -0.33,0.2 -0.23,0.38 0.16,0.23 0.41,0.39 0.69,0.39 0.28,0 0.54,-0.16 0.67,-0.39 0.1,-0.18 -0.03,-0.38 -0.23,-0.38z"/>
   <path fill="#4B6A77" d="M5.41 4.01l-0.1 -0.13c-0.41,-0.54 -0.62,-1.18 -0.62,-1.85l0 -0.17c0,-0.93 -0.66,-1.74 -1.58,-1.85 -1.08,-0.13 -2,0.72 -2,1.77l0 0.25c0,0.67 -0.2,1.31 -0.61,1.85l-0.1 0.13c-0.06,0.05 -0.08,0.15 -0.06,0.2 0.08,0.23 0.29,0.38 0.52,0.38l4.09 0c0.23,0 0.44,-0.15 0.49,-0.38 0.02,-0.08 0,-0.15 -0.03,-0.2z"/>
  </g>
  <circle fill="#DE4E07" stroke="#FEFEFE" stroke-width="0.47" stroke-miterlimit="22.9256" cx="4.21" cy="1.41" r="1.17"/>
 </g>
</svg>
