<?xml version="1.0" encoding="UTF-8"?>
<!DOCTYPE svg PUBLIC "-//W3C//DTD SVG 1.1//EN" "http://www.w3.org/Graphics/SVG/1.1/DTD/svg11.dtd">
<!-- Creator: CorelDRAW 2017 -->
<svg xmlns="http://www.w3.org/2000/svg" xml:space="preserve" width="24px" height="24px" version="1.1" shape-rendering="geometricPrecision" text-rendering="geometricPrecision" image-rendering="optimizeQuality" fill-rule="evenodd" clip-rule="evenodd"
viewBox="0 0 3.55 3.55"
 xmlns:xlink="http://www.w3.org/1999/xlink">
 <g id="Vrstva_x0020_1">
  <metadata id="CorelCorpID_0Corel-Layer"/>
  <rect fill="none" width="3.55" height="3.55"/>
  <g id="_1605682726528">
   <path fill="#4B6A77" d="M2.66 1.52c0.21,0 0.38,-0.17 0.38,-0.38 0,-0.21 -0.17,-0.38 -0.38,-0.38 -0.21,0 -0.38,0.17 -0.38,0.38 0,0.21 0.17,0.38 0.38,0.38z"/>
   <path fill="#4B6A77" d="M3.33 0.25l-3.11 0c-0.12,0 -0.22,0.1 -0.22,0.23l0 2.59c0,0.12 0.1,0.22 0.22,0.22l3.11 0c0.12,0 0.22,-0.1 0.22,-0.22l0 -2.59c0,-0.13 -0.1,-0.23 -0.22,-0.23zm-0.82 1.57c-0.02,-0.03 -0.06,-0.05 -0.1,-0.05 -0.04,0 -0.07,0.02 -0.1,0.05l-0.15 0.12c-0.03,0.02 -0.06,0.04 -0.09,0.04 -0.04,0 -0.07,-0.02 -0.09,-0.03 -0.01,-0.01 -0.02,-0.03 -0.03,-0.04l-0.43 -0.46c-0.03,-0.03 -0.08,-0.06 -0.13,-0.06 -0.05,0 -0.1,0.03 -0.13,0.06l-1.01 1.21 0 -2.06c0.01,-0.05 0.05,-0.09 0.11,-0.09l2.83 0c0.05,0 0.1,0.04 0.1,0.09l0 2.06 -0.78 -0.84z"/>
  </g>
 </g>
</svg>
