<?xml version="1.0" encoding="UTF-8"?>
<!DOCTYPE svg PUBLIC "-//W3C//DTD SVG 1.1//EN" "http://www.w3.org/Graphics/SVG/1.1/DTD/svg11.dtd">
<!-- Creator: CorelDRAW 2017 -->
<svg xmlns="http://www.w3.org/2000/svg" xml:space="preserve" width="24px" height="24px" version="1.1" shape-rendering="geometricPrecision" text-rendering="geometricPrecision" image-rendering="optimizeQuality" fill-rule="evenodd" clip-rule="evenodd"
viewBox="0 0 5.28 5.28"
 xmlns:xlink="http://www.w3.org/1999/xlink">
 <g id="Vrstva_x0020_1">
  <metadata id="CorelCorpID_0Corel-Layer"/>
  <rect fill="none" width="5.28" height="5.28"/>
  <g id="_1605684526512">
   <path fill="#BABABA" d="M3.96 2.26c0.31,0 0.57,-0.25 0.57,-0.56 0,-0.32 -0.26,-0.57 -0.57,-0.57 -0.31,0 -0.57,0.25 -0.57,0.57 0,0.31 0.26,0.56 0.57,0.56z"/>
   <path fill="#BABABA" d="M4.95 0.38l-4.62 0c-0.18,0 -0.33,0.15 -0.33,0.33l0 3.86c0,0.18 0.15,0.33 0.33,0.33l4.62 0c0.18,0 0.33,-0.15 0.33,-0.33l0 -3.86c0,-0.18 -0.15,-0.33 -0.33,-0.33zm-1.22 2.33c-0.03,-0.04 -0.09,-0.08 -0.15,-0.08 -0.06,0 -0.1,0.03 -0.15,0.07l-0.22 0.19c-0.04,0.03 -0.08,0.05 -0.13,0.05 -0.05,0 -0.1,-0.02 -0.13,-0.05 -0.01,-0.01 -0.04,-0.03 -0.05,-0.04l-0.64 -0.69c-0.04,-0.05 -0.12,-0.09 -0.19,-0.09 -0.08,0 -0.16,0.04 -0.2,0.09l-1.49 1.8 0 -3.07c0.01,-0.08 0.07,-0.14 0.15,-0.14l4.22 0c0.08,0 0.14,0.06 0.15,0.15l0 3.06 -1.17 -1.25z"/>
  </g>
 </g>
</svg>
