<?xml version="1.0" encoding="UTF-8"?>
<!DOCTYPE svg PUBLIC "-//W3C//DTD SVG 1.1//EN" "http://www.w3.org/Graphics/SVG/1.1/DTD/svg11.dtd">
<!-- Creator: CorelDRAW 2017 -->
<svg xmlns="http://www.w3.org/2000/svg" xml:space="preserve" width="15px" height="11px" version="1.1" shape-rendering="geometricPrecision" text-rendering="geometricPrecision" image-rendering="optimizeQuality" fill-rule="evenodd" clip-rule="evenodd"
viewBox="0 0 1.06 0.8"
 xmlns:xlink="http://www.w3.org/1999/xlink"
 enable-background="new 2 3.999 19.999 15.001">
 <g id="Vrstva_x0020_1">
  <metadata id="CorelCorpID_0Corel-Layer"/>
  <g id="_2269426479120">
   <g>
    <path fill="#4B6A77" d="M0.3 0.77l-0.27 -0.27c-0.04,-0.04 -0.04,-0.11 0,-0.15l0 0c0.04,-0.04 0.11,-0.04 0.15,0l0 0 0.19 0.19 0.51 -0.51c0.04,-0.04 0.11,-0.04 0.15,0l0 0c0.04,0.04 0.04,0.11 0,0.15l0 0 -0.58 0.59c-0.02,0.02 -0.05,0.03 -0.08,0.03l0 0c-0.03,0 -0.05,-0.01 -0.07,-0.03l0 0z"/>
   </g>
  </g>
 </g>
</svg>
