<?xml version="1.0" encoding="UTF-8"?>
<!DOCTYPE svg PUBLIC "-//W3C//DTD SVG 1.1//EN" "http://www.w3.org/Graphics/SVG/1.1/DTD/svg11.dtd">
<!-- Creator: CorelDRAW 2017 -->
<svg xmlns="http://www.w3.org/2000/svg" xml:space="preserve" width="143px" height="500px" version="1.1" shape-rendering="geometricPrecision" text-rendering="geometricPrecision" image-rendering="optimizeQuality" fill-rule="evenodd" clip-rule="evenodd"
viewBox="0 0 15.18 52.74"
 xmlns:xlink="http://www.w3.org/1999/xlink"
 enable-background="new 0 0 44.272 153.762">
 <g id="Vrstva_x0020_1">
  <metadata id="CorelCorpID_0Corel-Layer"/>
  <g id="_2269458924272">
   <path fill="#b1bbc1" d="M14.88 3.6c-1.02,-0.29 -1.89,4.62 -2.8,4.62 -1.14,0 1.8,-7.13 -0.13,-7.13 -1.52,0 -1.21,6.29 -2.02,6.29 -0.81,0 0.5,-7.38 -0.99,-7.38 -1.49,0 -0.29,7.66 -1.21,7.66 -0.68,0 -1.19,-6.19 -2.58,-6.19 -1.7,0 2.14,7.26 0.42,9.36 -1.35,1.65 -1.48,-2.51 -4.66,-2.51 -0.84,0 -1.28,0.71 -0.52,1.11 1.19,0.61 2.89,3.27 3.32,4.15 0.5,1.03 2.73,2.06 3.26,4.03 0.23,0.83 0.31,1.64 0.32,2.24l0 32.89 4.33 0 0 -32.89c0,-1.33 -0.03,-3.05 0.28,-3.5 1.41,-2.01 1.42,-5.78 1.42,-6.46 0,-0.57 2.76,-5.95 1.56,-6.29z"/>
  </g>
 </g>
</svg>
