<?xml version="1.0" encoding="UTF-8"?>
<!DOCTYPE svg PUBLIC "-//W3C//DTD SVG 1.1//EN" "http://www.w3.org/Graphics/SVG/1.1/DTD/svg11.dtd">
<!-- Creator: CorelDRAW X8 -->
<svg xmlns="http://www.w3.org/2000/svg" xml:space="preserve" width="150px" height="521px" version="1.1" shape-rendering="geometricPrecision" text-rendering="geometricPrecision" image-rendering="optimizeQuality" fill-rule="evenodd" clip-rule="evenodd"
viewBox="0 0 28 97"
 xmlns:xlink="http://www.w3.org/1999/xlink"
 enable-background="new 0 0 44.272 153.762">
 <defs>
     <mask id="id0">
       <linearGradient id="id1" gradientUnits="userSpaceOnUse" x1="17.5956" y1="28.713" x2="17.5956" y2="66.2366">
        <stop offset="0" stop-opacity="1" stop-color="white"/>
        <stop offset="1" stop-opacity="0" stop-color="white"/>
       </linearGradient>
      <rect fill="url(#id1)" width="27.9136" height="96.817"/>
     </mask>
 </defs>
 <g id="Vrstva_x0020_1">
  <metadata id="CorelCorpID_0Corel-Layer"/>
  <g id="_2744339605552">
   <g id="_2269458869744">
    <path fill="#B1BBC1" mask="url(#id0)" d="M27 7c-2,-1 -3,8 -5,8 -2,0 3,-13 0,-13 -3,0 -2,12 -4,12 -1,0 1,-14 -2,-14 -2,0 0,14 -2,14 -1,0 -2,-11 -5,-11 -3,0 4,13 1,17 -2,3 -2,-5 -8,-5 -2,0 -3,2 -1,2 2,1 5,6 6,8 1,2 5,4 6,7 0,2 0,3 0,4l0 61 8 0 0 -61c0,-2 0,-5 1,-6 2,-4 2,-11 2,-12 0,-1 6,-11 3,-11l0 0z"/>
   </g>
  </g>
 </g>
</svg>
