<?xml version="1.0" encoding="UTF-8"?>
<!DOCTYPE svg PUBLIC "-//W3C//DTD SVG 1.1//EN" "http://www.w3.org/Graphics/SVG/1.1/DTD/svg11.dtd">
<!-- Creator: CorelDRAW 2017 -->
<svg xmlns="http://www.w3.org/2000/svg" xml:space="preserve" width="2500px" height="1314px" version="1.1" shape-rendering="geometricPrecision" text-rendering="geometricPrecision" image-rendering="optimizeQuality" fill-rule="evenodd" clip-rule="evenodd"
viewBox="0 0 1954.81 1027.08"
 xmlns:xlink="http://www.w3.org/1999/xlink"
 enable-background="new 0 0 554.167 291.167">
 <g id="Vrstva_x0020_1">
  <metadata id="CorelCorpID_0Corel-Layer"/>
  <g id="_2269434385728">
   <g>
    <circle fill="#647b86" cx="319.24" cy="283.97" r="9.99"/>
    <circle fill="#647b86" cx="567.92" cy="393.9" r="9.99"/>
    <circle fill="#647b86" cx="455.04" cy="473.86" r="9.99"/>
    <circle fill="#647b86" cx="683.16" cy="265.73" r="9.99"/>
    <circle fill="#647b86" cx="698.44" cy="506.78" r="9.99"/>
    <circle fill="#647b86" cx="231.64" cy="489.14" r="9.99"/>
    <circle fill="#647b86" cx="874.82" cy="346.87" r="9.99"/>
    <circle fill="#647b86" cx="785.45" cy="159.91" r="9.99"/>
    <circle fill="#647b86" cx="1074.71" cy="117.58" r="9.99"/>
    <circle fill="#647b86" cx="1008.87" cy="285.73" r="9.99"/>
    <circle fill="#647b86" cx="566.75" cy="739.6" r="9.99"/>
    <circle fill="#647b86" cx="785.45" cy="654.94" r="9.99"/>
    <circle fill="#647b86" cx="544.41" cy="866.58" r="9.99"/>
    <circle fill="#647b86" cx="928.9" cy="899.51" r="9.99"/>
    <circle fill="#647b86" cx="939.48" cy="553.81" r="9.99"/>
    <circle fill="#647b86" cx="350.39" cy="875.99" r="9.99"/>
    <circle fill="#647b86" cx="1080.59" cy="557.35" r="9.99"/>
    <circle fill="#647b86" cx="1129.97" cy="677.28" r="9.99"/>
    <circle fill="#647b86" cx="965.35" cy="713.73" r="10"/>
    <circle fill="#647b86" cx="1226.39" cy="750.18" r="10"/>
    <circle fill="#647b86" cx="1046.49" cy="904.21" r="10"/>
    <circle fill="#647b86" cx="615.75" cy="831.55" r="9.99"/>
    <circle fill="#647b86" cx="1239.32" cy="230.46" r="9.99"/>
    <circle fill="#647b86" cx="1327.51" cy="426.83" r="9.99"/>
    <circle fill="#647b86" cx="1425.69" cy="509.13" r="9.99"/>
    <circle fill="#647b86" cx="1477.43" cy="398.02" r="9.99"/>
    <circle fill="#647b86" cx="1514.47" cy="189.9" r="9.99"/>
    <circle fill="#647b86" cx="1601.48" cy="140.51" r="10"/>
    <circle fill="#647b86" cx="1627.35" cy="365.09" r="9.99"/>
    <circle fill="#647b86" cx="1573.26" cy="477.39" r="10"/>
    <circle fill="#647b86" cx="1373.37" cy="676.69" r="10"/>
    <circle fill="#647b86" cx="1604.42" cy="602.61" r="10"/>
    <circle fill="#647b86" cx="1801.96" cy="476.21" r="9.99"/>
    <circle fill="#647b86" cx="1944.82" cy="375.09" r="9.99"/>
    <circle fill="#647b86" cx="1872.51" cy="39.98" r="9.99"/>
    <circle fill="#647b86" cx="1456.26" cy="874.23" r="9.99"/>
    <circle fill="#647b86" cx="1208.16" cy="909.5" r="10"/>
    <circle fill="#647b86" cx="477.39" cy="39.98" r="9.99"/>
    <circle fill="#647b86" cx="1119.98" cy="465.04" r="10"/>
    <circle fill="#647b86" cx="204.01" cy="9.99" r="9.99"/>
    <circle fill="#647b86" cx="122.87" cy="396.84" r="9.99"/>
    <circle fill="#647b86" cx="80.54" cy="503.84" r="9.99"/>
    <circle fill="#647b86" cx="91.71" cy="609.67" r="9.99"/>
    <circle fill="#647b86" cx="231.05" cy="766.64" r="9.99"/>
    <circle fill="#647b86" cx="39.98" cy="891.86" r="9.99"/>
    <circle fill="#647b86" cx="601.43" cy="1017.09" r="9.99"/>
    <circle fill="#647b86" cx="1572.67" cy="960.65" r="10"/>
    <circle fill="#647b86" cx="1682.02" cy="1015.33" r="10"/>
    <circle fill="#647b86" cx="1886.62" cy="706.67" r="10"/>
    <circle fill="#647b86" cx="9.99" cy="161.67" r="9.99"/>
    <circle fill="#647b86" cx="718.13" cy="65.55" r="10"/>
    <circle fill="#647b86" cx="1228.16" cy="11.76" r="10"/>
    <circle fill="#647b86" cx="1103.52" cy="1011.21" r="10"/>
    <line fill="none" stroke="#647b86" stroke-width="1.76" stroke-miterlimit="22.9256" x1="9.99" y1="161.68" x2="204" y2= "10" />
    <line fill="none" stroke="#647b86" stroke-width="1.76" stroke-miterlimit="22.9256" x1="204" y1="10" x2="319.24" y2= "283.97" />
    <line fill="none" stroke="#647b86" stroke-width="1.76" stroke-miterlimit="22.9256" x1="204" y1="10" x2="477.38" y2= "39.98" />
    <line fill="none" stroke="#647b86" stroke-width="1.76" stroke-miterlimit="22.9256" x1="319.24" y1="283.97" x2="477.38" y2= "39.98" />
    <line fill="none" stroke="#647b86" stroke-width="1.76" stroke-miterlimit="22.9256" x1="319.24" y1="283.97" x2="9.99" y2= "161.68" />
    <line fill="none" stroke="#647b86" stroke-width="1.76" stroke-miterlimit="22.9256" x1="9.99" y1="161.68" x2="122.87" y2= "396.85" />
    <line fill="none" stroke="#647b86" stroke-width="1.76" stroke-miterlimit="22.9256" x1="122.87" y1="396.85" x2="319.24" y2= "283.97" />
    <line fill="none" stroke="#647b86" stroke-width="1.76" stroke-miterlimit="22.9256" x1="319.24" y1="283.97" x2="231.64" y2= "489.15" />
    <line fill="none" stroke="#647b86" stroke-width="1.76" stroke-miterlimit="22.9256" x1="231.64" y1="489.14" x2="122.87" y2= "396.85" />
    <line fill="none" stroke="#647b86" stroke-width="1.76" stroke-miterlimit="22.9256" x1="231.64" y1="489.14" x2="80.54" y2= "503.84" />
    <line fill="none" stroke="#647b86" stroke-width="1.76" stroke-miterlimit="22.9256" x1="80.54" y1="503.84" x2="122.87" y2= "396.85" />
    <line fill="none" stroke="#647b86" stroke-width="1.76" stroke-miterlimit="22.9256" x1="80.54" y1="503.84" x2="91.71" y2= "609.67" />
    <line fill="none" stroke="#647b86" stroke-width="1.76" stroke-miterlimit="22.9256" x1="91.71" y1="609.67" x2="231.64" y2= "489.14" />
    <line fill="none" stroke="#647b86" stroke-width="1.76" stroke-miterlimit="22.9256" x1="231.64" y1="489.14" x2="455.04" y2= "473.86" />
    <line fill="none" stroke="#647b86" stroke-width="1.76" stroke-miterlimit="22.9256" x1="455.04" y1="473.86" x2="231.05" y2= "766.64" />
    <line fill="none" stroke="#647b86" stroke-width="1.76" stroke-miterlimit="22.9256" x1="231.05" y1="766.64" x2="566.75" y2= "739.6" />
    <line fill="none" stroke="#647b86" stroke-width="1.76" stroke-miterlimit="22.9256" x1="566.75" y1="739.6" x2="615.75" y2= "831.56" />
    <line fill="none" stroke="#647b86" stroke-width="1.76" stroke-miterlimit="22.9256" x1="615.73" y1="831.53" x2="785.45" y2= "654.94" />
    <line fill="none" stroke="#647b86" stroke-width="1.76" stroke-miterlimit="22.9256" x1="785.45" y1="654.94" x2="566.75" y2= "739.6" />
    <line fill="none" stroke="#647b86" stroke-width="1.76" stroke-miterlimit="22.9256" x1="566.75" y1="739.6" x2="698.44" y2= "506.78" />
    <line fill="none" stroke="#647b86" stroke-width="1.76" stroke-miterlimit="22.9256" x1="698.19" y1="507.23" x2="455.04" y2= "473.86" />
    <line fill="none" stroke="#647b86" stroke-width="1.76" stroke-miterlimit="22.9256" x1="455.04" y1="473.86" x2="317.47" y2= "282.2" />
    <line fill="none" stroke="#647b86" stroke-width="1.76" stroke-miterlimit="22.9256" x1="477.38" y1="39.98" x2="567.92" y2= "393.91" />
    <line fill="none" stroke="#647b86" stroke-width="1.76" stroke-miterlimit="22.9256" x1="567.92" y1="393.91" x2="455.04" y2= "473.86" />
    <line fill="none" stroke="#647b86" stroke-width="1.76" stroke-miterlimit="22.9256" x1="567.92" y1="393.91" x2="683.16" y2= "265.74" />
    <line fill="none" stroke="#647b86" stroke-width="1.76" stroke-miterlimit="22.9256" x1="683.16" y1="265.74" x2="785.45" y2= "159.91" />
    <line fill="none" stroke="#647b86" stroke-width="1.76" stroke-miterlimit="22.9256" x1="785.45" y1="159.91" x2="718.13" y2= "65.55" />
    <line fill="none" stroke="#647b86" stroke-width="1.76" stroke-miterlimit="22.9256" x1="718.13" y1="65.55" x2="683.16" y2= "265.74" />
    <line fill="none" stroke="#647b86" stroke-width="1.76" stroke-miterlimit="22.9256" x1="683.16" y1="265.74" x2="477.38" y2= "39.98" />
    <line fill="none" stroke="#647b86" stroke-width="1.76" stroke-miterlimit="22.9256" x1="683.16" y1="265.74" x2="874.81" y2= "346.87" />
    <line fill="none" stroke="#647b86" stroke-width="1.76" stroke-miterlimit="22.9256" x1="874.81" y1="346.87" x2="1008.86" y2= "285.73" />
    <line fill="none" stroke="#647b86" stroke-width="1.76" stroke-miterlimit="22.9256" x1="1008.86" y1="285.73" x2="785.45" y2= "159.91" />
    <line fill="none" stroke="#647b86" stroke-width="1.76" stroke-miterlimit="22.9256" x1="785.45" y1="159.91" x2="1074.71" y2= "117.58" />
    <line fill="none" stroke="#647b86" stroke-width="1.76" stroke-miterlimit="22.9256" x1="1075.73" y1="117.48" x2="1228.16" y2= "11.76" />
    <line fill="none" stroke="#647b86" stroke-width="1.76" stroke-miterlimit="22.9256" x1="1228.16" y1="11.76" x2="1008.86" y2= "285.73" />
    <line fill="none" stroke="#647b86" stroke-width="1.76" stroke-miterlimit="22.9256" x1="1008.86" y1="285.73" x2="1239.33" y2= "230.47" />
    <line fill="none" stroke="#647b86" stroke-width="1.76" stroke-miterlimit="22.9256" x1="1239.33" y1="230.46" x2="1119.98" y2= "465.04" />
    <line fill="none" stroke="#647b86" stroke-width="1.76" stroke-miterlimit="22.9256" x1="1119.98" y1="465.04" x2="939.49" y2= "553.82" />
    <line fill="none" stroke="#647b86" stroke-width="1.76" stroke-miterlimit="22.9256" x1="939.49" y1="553.81" x2="1080.59" y2= "558.89" />
    <line fill="none" stroke="#647b86" stroke-width="1.76" stroke-miterlimit="22.9256" x1="1080.59" y1="557.35" x2="965.35" y2= "713.73" />
    <line fill="none" stroke="#647b86" stroke-width="1.76" stroke-miterlimit="22.9256" x1="965.35" y1="713.73" x2="785.45" y2= "654.94" />
    <line fill="none" stroke="#647b86" stroke-width="1.76" stroke-miterlimit="22.9256" x1="455.04" y1="473.86" x2="566.75" y2= "739.6" />
    <line fill="none" stroke="#647b86" stroke-width="1.76" stroke-miterlimit="22.9256" x1="567.92" y1="393.91" x2="698.19" y2= "507.23" />
    <line fill="none" stroke="#647b86" stroke-width="1.76" stroke-miterlimit="22.9256" x1="698.19" y1="507.23" x2="785.45" y2= "654.94" />
    <line fill="none" stroke="#647b86" stroke-width="1.76" stroke-miterlimit="22.9256" x1="785.45" y1="654.94" x2="939.49" y2= "553.81" />
    <line fill="none" stroke="#647b86" stroke-width="1.76" stroke-miterlimit="22.9256" x1="939.49" y1="553.81" x2="874.81" y2= "346.87" />
    <line fill="none" stroke="#647b86" stroke-width="1.76" stroke-miterlimit="22.9256" x1="874.81" y1="346.87" x2="698.19" y2= "507.23" />
    <line fill="none" stroke="#647b86" stroke-width="1.76" stroke-miterlimit="22.9256" x1="544.41" y1="866.59" x2="615.73" y2= "831.53" />
    <line fill="none" stroke="#647b86" stroke-width="1.76" stroke-miterlimit="22.9256" x1="544.41" y1="866.59" x2="350.39" y2= "876" />
    <line fill="none" stroke="#647b86" stroke-width="1.76" stroke-miterlimit="22.9256" x1="350.39" y1="875.99" x2="231.05" y2= "766.64" />
    <line fill="none" stroke="#647b86" stroke-width="1.76" stroke-miterlimit="22.9256" x1="350.39" y1="875.99" x2="566.75" y2= "739.6" />
    <line fill="none" stroke="#647b86" stroke-width="1.76" stroke-miterlimit="22.9256" x1="566.75" y1="739.6" x2="544.41" y2= "866.59" />
    <line fill="none" stroke="#647b86" stroke-width="1.76" stroke-miterlimit="22.9256" x1="39.98" y1="891.87" x2="231.05" y2= "766.64" />
    <line fill="none" stroke="#647b86" stroke-width="1.76" stroke-miterlimit="22.9256" x1="39.98" y1="891.87" x2="350.39" y2= "875.99" />
    <line fill="none" stroke="#647b86" stroke-width="1.76" stroke-miterlimit="22.9256" x1="231.05" y1="766.64" x2="91.71" y2= "609.67" />
    <line fill="none" stroke="#647b86" stroke-width="1.76" stroke-miterlimit="22.9256" x1="91.71" y1="609.67" x2="39.98" y2= "891.87" />
    <line fill="none" stroke="#647b86" stroke-width="1.76" stroke-miterlimit="22.9256" x1="350.47" y1="875.99" x2="601.43" y2= "1017.1" />
    <line fill="none" stroke="#647b86" stroke-width="1.76" stroke-miterlimit="22.9256" x1="601.43" y1="1017.1" x2="544.41" y2= "866.59" />
    <line fill="none" stroke="#647b86" stroke-width="1.76" stroke-miterlimit="22.9256" x1="544.41" y1="866.59" x2="928.9" y2= "899.51" />
    <line fill="none" stroke="#647b86" stroke-width="1.76" stroke-miterlimit="22.9256" x1="926.95" y1="899.34" x2="785.45" y2= "654.94" />
    <line fill="none" stroke="#647b86" stroke-width="1.76" stroke-miterlimit="22.9256" x1="615.73" y1="831.53" x2="928.9" y2= "899.51" />
    <line fill="none" stroke="#647b86" stroke-width="1.76" stroke-miterlimit="22.9256" x1="928.9" y1="899.51" x2="601.43" y2= "1017.1" />
    <line fill="none" stroke="#647b86" stroke-width="1.76" stroke-miterlimit="22.9256" x1="927.97" y1="899.85" x2="965.35" y2= "713.73" />
    <line fill="none" stroke="#647b86" stroke-width="1.76" stroke-miterlimit="22.9256" x1="965.04" y1="715.31" x2="1046.49" y2= "904.22" />
    <line fill="none" stroke="#647b86" stroke-width="1.76" stroke-miterlimit="22.9256" x1="1046.49" y1="904.22" x2="927.97" y2= "899.85" />
    <line fill="none" stroke="#647b86" stroke-width="1.76" stroke-miterlimit="22.9256" x1="1046.49" y1="904.21" x2="1103.52" y2= "1011.21" />
    <line fill="none" stroke="#647b86" stroke-width="1.76" stroke-miterlimit="22.9256" x1="1103.52" y1="1011.21" x2="921.26" y2= "893.14" />
    <line fill="none" stroke="#647b86" stroke-width="1.76" stroke-miterlimit="22.9256" x1="1103.52" y1="1011.21" x2="1208.16" y2= "909.51" />
    <line fill="none" stroke="#647b86" stroke-width="1.76" stroke-miterlimit="22.9256" x1="1208.16" y1="909.51" x2="1046.49" y2= "904.21" />
    <line fill="none" stroke="#647b86" stroke-width="1.76" stroke-miterlimit="22.9256" x1="1046.49" y1="904.21" x2="1226.39" y2= "750.18" />
    <line fill="none" stroke="#647b86" stroke-width="1.76" stroke-miterlimit="22.9256" x1="1226.39" y1="750.18" x2="1208.16" y2= "909.51" />
    <line fill="none" stroke="#647b86" stroke-width="1.76" stroke-miterlimit="22.9256" x1="1226.39" y1="750.18" x2="1129.97" y2= "677.28" />
    <line fill="none" stroke="#647b86" stroke-width="1.76" stroke-miterlimit="22.9256" x1="1129.97" y1="677.28" x2="1046.49" y2= "904.21" />
    <line fill="none" stroke="#647b86" stroke-width="1.76" stroke-miterlimit="22.9256" x1="1129.97" y1="677.28" x2="965.35" y2= "713.73" />
    <line fill="none" stroke="#647b86" stroke-width="1.76" stroke-miterlimit="22.9256" x1="1075.73" y1="117.48" x2="1008.86" y2= "285.73" />
    <line fill="none" stroke="#647b86" stroke-width="1.76" stroke-miterlimit="22.9256" x1="1008.86" y1="285.73" x2="1119.68" y2= "465.74" />
    <line fill="none" stroke="#647b86" stroke-width="1.76" stroke-miterlimit="22.9256" x1="939.49" y1="553.81" x2="698.44" y2= "506.79" />
    <line fill="none" stroke="#647b86" stroke-width="1.76" stroke-miterlimit="22.9256" x1="698.63" y1="506.82" x2="683.16" y2= "265.74" />
    <line fill="none" stroke="#647b86" stroke-width="1.76" stroke-miterlimit="22.9256" x1="683.16" y1="265.74" x2="1008.86" y2= "285.73" />
    <line fill="none" stroke="#647b86" stroke-width="1.76" stroke-miterlimit="22.9256" x1="1008.86" y1="285.73" x2="939.49" y2= "553.81" />
    <line fill="none" stroke="#647b86" stroke-width="1.76" stroke-miterlimit="22.9256" x1="231.64" y1="489.14" x2="231.05" y2= "766.64" />
    <line fill="none" stroke="#647b86" stroke-width="1.76" stroke-miterlimit="22.9256" x1="477.38" y1="39.98" x2="455.04" y2= "473.86" />
    <line fill="none" stroke="#647b86" stroke-width="1.76" stroke-miterlimit="22.9256" x1="477.38" y1="39.98" x2="718.13" y2= "65.55" />
    <line fill="none" stroke="#647b86" stroke-width="1.76" stroke-miterlimit="22.9256" x1="718.13" y1="65.55" x2="1075.73" y2= "117.48" />
    <line fill="none" stroke="#647b86" stroke-width="1.76" stroke-miterlimit="22.9256" x1="1228.16" y1="11.76" x2="1239.33" y2= "230.47" />
    <line fill="none" stroke="#647b86" stroke-width="1.76" stroke-miterlimit="22.9256" x1="1239.33" y1="230.47" x2="1327.51" y2= "426.83" />
    <line fill="none" stroke="#647b86" stroke-width="1.76" stroke-miterlimit="22.9256" x1="1327.51" y1="426.83" x2="1119.98" y2= "465.04" />
    <line fill="none" stroke="#647b86" stroke-width="1.76" stroke-miterlimit="22.9256" x1="1119.98" y1="465.04" x2="1080.59" y2= "557.35" />
    <line fill="none" stroke="#647b86" stroke-width="1.76" stroke-miterlimit="22.9256" x1="1080.59" y1="557.35" x2="1327.51" y2= "426.83" />
    <line fill="none" stroke="#647b86" stroke-width="1.76" stroke-miterlimit="22.9256" x1="1080.59" y1="557.35" x2="1129.97" y2= "677.28" />
    <line fill="none" stroke="#647b86" stroke-width="1.76" stroke-miterlimit="22.9256" x1="1080.59" y1="557.35" x2="1373.37" y2= "676.69" />
    <line fill="none" stroke="#647b86" stroke-width="1.76" stroke-miterlimit="22.9256" x1="1373.36" y1="676.69" x2="1226.39" y2= "750.18" />
    <line fill="none" stroke="#647b86" stroke-width="1.76" stroke-miterlimit="22.9256" x1="1129.97" y1="677.28" x2="1373.36" y2= "676.69" />
    <line fill="none" stroke="#647b86" stroke-width="1.76" stroke-miterlimit="22.9256" x1="1373.36" y1="676.69" x2="1425.7" y2= "509.14" />
    <line fill="none" stroke="#647b86" stroke-width="1.76" stroke-miterlimit="22.9256" x1="1425.7" y1="509.14" x2="1080.59" y2= "557.35" />
    <line fill="none" stroke="#647b86" stroke-width="1.76" stroke-miterlimit="22.9256" x1="1327.51" y1="426.83" x2="1425.7" y2= "509.14" />
    <line fill="none" stroke="#647b86" stroke-width="1.76" stroke-miterlimit="22.9256" x1="1425.7" y1="509.14" x2="1477.43" y2= "398.02" />
    <line fill="none" stroke="#647b86" stroke-width="1.76" stroke-miterlimit="22.9256" x1="1477.43" y1="398.02" x2="1327.51" y2= "426.83" />
    <line fill="none" stroke="#647b86" stroke-width="1.76" stroke-miterlimit="22.9256" x1="1477.43" y1="398.02" x2="1239.33" y2= "230.47" />
    <line fill="none" stroke="#647b86" stroke-width="1.76" stroke-miterlimit="22.9256" x1="1228.16" y1="11.76" x2="1601.48" y2= "140.52" />
    <line fill="none" stroke="#647b86" stroke-width="1.76" stroke-miterlimit="22.9256" x1="1601.48" y1="140.52" x2="1514.47" y2= "189.9" />
    <line fill="none" stroke="#647b86" stroke-width="1.76" stroke-miterlimit="22.9256" x1="1228.16" y1="11.76" x2="1514.47" y2= "189.9" />
    <line fill="none" stroke="#647b86" stroke-width="1.76" stroke-miterlimit="22.9256" x1="1514.47" y1="189.9" x2="1239.32" y2= "230.46" />
    <line fill="none" stroke="#647b86" stroke-width="1.76" stroke-miterlimit="22.9256" x1="1514.47" y1="189.9" x2="1477.43" y2= "398.02" />
    <line fill="none" stroke="#647b86" stroke-width="1.76" stroke-miterlimit="22.9256" x1="1477.43" y1="398.02" x2="1627.35" y2= "365.1" />
    <line fill="none" stroke="#647b86" stroke-width="1.76" stroke-miterlimit="22.9256" x1="1627.34" y1="365.09" x2="1514.47" y2= "189.9" />
    <line fill="none" stroke="#647b86" stroke-width="1.76" stroke-miterlimit="22.9256" x1="1601.48" y1="140.52" x2="1627.35" y2= "365.1" />
    <line fill="none" stroke="#647b86" stroke-width="1.76" stroke-miterlimit="22.9256" x1="1627.35" y1="365.1" x2="1573.26" y2= "477.39" />
    <line fill="none" stroke="#647b86" stroke-width="1.76" stroke-miterlimit="22.9256" x1="1573.26" y1="477.39" x2="1425.7" y2= "509.14" />
    <line fill="none" stroke="#647b86" stroke-width="1.76" stroke-miterlimit="22.9256" x1="1477.43" y1="398.02" x2="1573.26" y2= "477.39" />
    <line fill="none" stroke="#647b86" stroke-width="1.76" stroke-miterlimit="22.9256" x1="1601.48" y1="140.52" x2="1872.51" y2= "39.98" />
    <line fill="none" stroke="#647b86" stroke-width="1.76" stroke-miterlimit="22.9256" x1="1872.51" y1="39.98" x2="1627.35" y2= "365.09" />
    <line fill="none" stroke="#647b86" stroke-width="1.76" stroke-miterlimit="22.9256" x1="1627.35" y1="365.09" x2="1801.96" y2= "476.21" />
    <line fill="none" stroke="#647b86" stroke-width="1.76" stroke-miterlimit="22.9256" x1="1801.96" y1="476.21" x2="1944.82" y2= "375.09" />
    <line fill="none" stroke="#647b86" stroke-width="1.76" stroke-miterlimit="22.9256" x1="1944.82" y1="374.78" x2="1627.34" y2= "365.09" />
    <line fill="none" stroke="#647b86" stroke-width="1.76" stroke-miterlimit="22.9256" x1="1872.51" y1="39.98" x2="1944.82" y2= "374.78" />
    <line fill="none" stroke="#647b86" stroke-width="1.76" stroke-miterlimit="22.9256" x1="1573.26" y1="477.39" x2="1604.42" y2= "602.61" />
    <line fill="none" stroke="#647b86" stroke-width="1.76" stroke-miterlimit="22.9256" x1="1604.42" y1="602.61" x2="1801.96" y2= "476.21" />
    <line fill="none" stroke="#647b86" stroke-width="1.76" stroke-miterlimit="22.9256" x1="1801.96" y1="476.21" x2="1573.82" y2= "476.21" />
    <line fill="none" stroke="#647b86" stroke-width="1.76" stroke-miterlimit="22.9256" x1="1604.42" y1="602.61" x2="1425.7" y2= "509.14" />
    <line fill="none" stroke="#647b86" stroke-width="1.76" stroke-miterlimit="22.9256" x1="1604.43" y1="602.61" x2="1373.36" y2= "676.69" />
    <line fill="none" stroke="#647b86" stroke-width="1.76" stroke-miterlimit="22.9256" x1="1373.36" y1="676.69" x2="1456.27" y2= "874.23" />
    <line fill="none" stroke="#647b86" stroke-width="1.76" stroke-miterlimit="22.9256" x1="1456.27" y1="874.23" x2="1208.16" y2= "909.5" />
    <line fill="none" stroke="#647b86" stroke-width="1.76" stroke-miterlimit="22.9256" x1="1226.39" y1="750.18" x2="1456.27" y2= "874.23" />
    <line fill="none" stroke="#647b86" stroke-width="1.76" stroke-miterlimit="22.9256" x1="1886.62" y1="706.67" x2="1944.82" y2= "374.78" />
    <line fill="none" stroke="#647b86" stroke-width="1.76" stroke-miterlimit="22.9256" x1="1801.96" y1="476.21" x2="1886.62" y2= "706.67" />
    <line fill="none" stroke="#647b86" stroke-width="1.76" stroke-miterlimit="22.9256" x1="1886.62" y1="706.67" x2="1604.43" y2= "602.61" />
    <line fill="none" stroke="#647b86" stroke-width="1.76" stroke-miterlimit="22.9256" x1="1604.43" y1="602.61" x2="1456.27" y2= "874.23" />
    <line fill="none" stroke="#647b86" stroke-width="1.76" stroke-miterlimit="22.9256" x1="1456.27" y1="874.23" x2="1572.67" y2= "960.65" />
    <line fill="none" stroke="#647b86" stroke-width="1.76" stroke-miterlimit="22.9256" x1="1572.67" y1="960.65" x2="1604.43" y2= "602.61" />
    <line fill="none" stroke="#647b86" stroke-width="1.76" stroke-miterlimit="22.9256" x1="1682.02" y1="1015.33" x2="1604.43" y2= "602.61" />
    <line fill="none" stroke="#647b86" stroke-width="1.76" stroke-miterlimit="22.9256" x1="1572.67" y1="960.65" x2="1682.02" y2= "1015.33" />
    <line fill="none" stroke="#647b86" stroke-width="1.76" stroke-miterlimit="22.9256" x1="1682.02" y1="1015.33" x2="1886.62" y2= "706.67" />
    <line fill="none" stroke="#647b86" stroke-width="1.76" stroke-miterlimit="22.9256" x1="939.49" y1="553.81" x2="965.35" y2= "713.73" />
   </g>
  </g>
 </g>
</svg>
